<?xml version="1.0" encoding="UTF-8"?>
<svg width="170px" height="170px" viewBox="0 0 170 170" version="1.1" xmlns="http://www.w3.org/2000/svg" xmlns:xlink="http://www.w3.org/1999/xlink">
    <!-- Generator: Sketch 47.1 (45422) - http://www.bohemiancoding.com/sketch -->
    <title>hh-logo</title>
    <desc>Created with Sketch.</desc>
    <defs></defs>
    <g id="Page-1" stroke="none" stroke-width="1" fill="none" fill-rule="evenodd">
        <g id="hh-profile" transform="translate(-165.000000, -165.000000)" fill="#E6C591">
            <path d="M327.608696,165 L335,165 L335,335 L327.608696,335 L327.608696,165 Z M165,165 L172.391304,165 L172.391304,335 L165,335 L165,165 Z M312.826087,165 L320.217391,165 L320.217391,335 L312.826087,335 L312.826087,165 Z M298.043478,165 L305.434783,165 L305.434783,335 L298.043478,335 L298.043478,165 Z M283.26087,165 L290.652174,165 L290.652174,335 L283.26087,335 L283.26087,268.375604 L216.73913,268.375604 L216.73913,335 L209.347826,335 L209.347826,165 L216.73913,165 L216.73913,231.419082 L283.26087,231.419082 L283.26087,165 Z M194.565217,165 L201.956522,165 L201.956522,335 L194.565217,335 L194.565217,165 Z M179.782609,165 L187.173913,165 L187.173913,335 L179.782609,335 L179.782609,165 Z M283.26087,260.9843 L283.26087,253.592995 L216.73913,253.592995 L216.73913,260.9843 L283.26087,260.9843 Z M283.26087,246.201691 L283.26087,238.810386 L216.73913,238.810386 L216.73913,246.201691 L283.26087,246.201691 Z" id="hh-logo"></path>
        </g>
    </g>
</svg>